<?xml version="1.0" standalone="no"?>
<!DOCTYPE svg PUBLIC "-//W3C//DTD SVG 20010904//EN"
 "http://www.w3.org/TR/2001/REC-SVG-20010904/DTD/svg10.dtd">
<svg version="1.0" xmlns="http://www.w3.org/2000/svg"
 width="512.000000pt" height="512.000000pt" viewBox="0 0 512.000000 512.000000"
 preserveAspectRatio="xMidYMid meet">
<metadata>
Created by potrace 1.14, written by Peter Selinger 2001-2017
</metadata>
<g transform="translate(0.000000,512.000000) scale(0.100000,-0.100000)"
fill="#000000" stroke="none">
<path d="M2379 5116 c-2 -2 -40 -6 -83 -10 -44 -4 -82 -8 -85 -10 -3 -2 -31
-7 -61 -11 -30 -3 -93 -15 -140 -25 -568 -126 -1075 -440 -1442 -894 -114
-142 -183 -247 -290 -446 -111 -206 -217 -540 -252 -790 -28 -200 -29 -569 -2
-725 3 -16 8 -43 10 -60 2 -16 12 -66 21 -110 176 -847 782 -1557 1595 -1870
165 -64 407 -124 560 -140 36 -4 87 -11 114 -15 50 -8 472 -5 516 4 14 3 48 7
75 11 187 22 491 107 655 181 210 96 445 235 564 335 335 277 537 525 711 867
104 205 187 445 220 634 3 17 7 34 9 37 3 5 9 42 22 131 14 101 19 189 19 345
0 217 -11 339 -44 500 -6 28 -13 61 -15 75 -11 55 -50 190 -78 270 -206 586
-587 1046 -1138 1377 -222 134 -551 254 -825 302 -57 10 -81 14 -170 26 -44 7
-461 16 -466 11z"/>
</g>
</svg>
